<?xml version="1.0" standalone="no"?><svg xmlns="http://www.w3.org/2000/svg" viewBox="0 0 1440 320"><path fill="#181818" fill-opacity="1" d="M0,288L26.7,240C53.3,192,107,96,160,96C213.3,96,267,192,320,192C373.3,192,427,96,480,96C533.3,96,587,192,640,213.3C693.3,235,747,181,800,144C853.3,107,907,85,960,90.7C1013.3,96,1067,128,1120,133.3C1173.3,139,1227,117,1280,101.3C1333.3,85,1387,75,1413,69.3L1440,64L1440,320L1413.3,320C1386.7,320,1333,320,1280,320C1226.7,320,1173,320,1120,320C1066.7,320,1013,320,960,320C906.7,320,853,320,800,320C746.7,320,693,320,640,320C586.7,320,533,320,480,320C426.7,320,373,320,320,320C266.7,320,213,320,160,320C106.7,320,53,320,27,320L0,320Z" style="--darkreader-inline-fill:#121414;" data-darkreader-inline-fill=""></path></svg>